<?xml version="1.0" encoding="utf-8"?>
<!-- Generator: Adobe Illustrator 28.0.0, SVG Export Plug-In . SVG Version: 6.00 Build 0)  -->
<svg version="1.1" id="Layer_1" xmlns="http://www.w3.org/2000/svg" xmlns:xlink="http://www.w3.org/1999/xlink" x="0px" y="0px"
	 viewBox="0 0 100 100" style="enable-background:new 0 0 100 100;" xml:space="preserve">
<style type="text/css">
	.st0{fill:#F4F9EE;}
	.st1{fill:#7FCBB4;}
	.st2{fill:#127274;}
</style>
<rect x="0.17" y="0.09" class="st0" width="100" height="100"/>
<g>
	<g>
		<path class="st1" d="M34.89,84.6L43,37.5h12.3l9.57,25.11l9.53-25.11h12.3l8.11,47.1H82.45L78.34,57.5L67.03,84.6h-4.96
			L51.35,57.5L47.23,84.6H34.89z"/>
	</g>
	<g>
		<path class="st2" d="M30.66,37.43h24.72c0,2.5-0.12,4.77-0.31,6.81c-0.23,2.04-0.65,3.92-1.27,5.69
			c-0.88,2.46-2.11,4.61-3.61,6.54c-1.54,1.88-3.31,3.46-5.38,4.73c-2.04,1.27-4.31,2.23-6.77,2.92c-2.46,0.65-5.04,1-7.77,1
			c-3.73,0-7.11-0.62-10.19-1.81c-3.08-1.19-5.69-2.92-7.92-5.08c-2.19-2.19-3.92-4.81-5.15-7.88S5.17,43.89,5.17,40.2
			c0-3.65,0.62-7.04,1.81-10.07c1.19-3.08,2.92-5.69,5.15-7.84c2.23-2.15,4.88-3.84,8.04-5.08c3.15-1.19,6.61-1.81,10.5-1.81
			c5,0,9.38,1.08,13.15,3.19c3.77,2.11,6.77,5.42,8.96,9.88l-11.8,4.81c-1.11-2.58-2.54-4.42-4.31-5.57c-1.77-1.11-3.77-1.69-6-1.69
			c-1.85,0-3.58,0.35-5.08,1.04c-1.54,0.69-2.81,1.65-3.92,2.92c-1.08,1.27-1.92,2.81-2.54,4.58c-0.62,1.81-0.92,3.81-0.92,6
			c0,2,0.27,3.84,0.81,5.57c0.54,1.69,1.31,3.19,2.38,4.42c1.04,1.23,2.38,2.23,3.92,2.92c1.58,0.69,3.38,1.04,5.46,1.04
			c1.23,0,2.42-0.12,3.58-0.42c1.15-0.27,2.15-0.69,3.08-1.31c0.92-0.62,1.65-1.38,2.27-2.35c0.58-0.96,1-2.11,1.19-3.5H30.66
			L30.66,37.43L30.66,37.43z"/>
	</g>
</g>
</svg>
